# xmcd
#
# Track frame offsets: 
#        150
#        12040
#        23268
#        35695
#        47373
#        58340
#        72569
#        83832
#        96184
#        107486
#        120626
#        132191
#        143720
#        155510
#        167151
#        179840
#        192941
#        203736
#        216286
#        230378
#        241265
#        251180
#        264733
#        275773
#        288125
#        300256
#        311601
#        322756
#
# Disc length: 4466 seconds
#
# Revision: 0
# Processed by: cddbd v1.5.2PL0 Copyright (c) Steve Scherf et al.
# Submitted via: ExactAudioCopyFreeDBPlugin 1.0
#
DISCID=8b11701c
DTITLE=Jim Reeves - Welcome To My World - CD 09
DYEAR=2001
DGENRE=Country
TTITLE0=Have You Ever Been Lonely
TTITLE1=There's Always Me
TTITLE2=All Dressed Up And Lonely
TTITLE3=Welcome To My World
TTITLE4=Be Honest With Me
TTITLE5=I Fall To Pieces
TTITLE6=Just Walking In The Rain
TTITLE7=Blue Skies
TTITLE8=I'm A Fool To Care
TTITLE9=It's No Sin
TTITLE10=Am I That Easy To Forget
TTITLE11=Adios Amigo
TTITLE12=I'll Fly Away
TTITLE13=Where Do I Go From Here
TTITLE14=This World Is Not My Home
TTITLE15=Oh, Gentle Shepherd
TTITLE16=Where We'll Never Grow Old
TTITLE17=I'd Rather Have Jesus
TTITLE18=Have Thine Own Way, Lord
TTITLE19=The Night Watch
TTITLE20=Across The Bridge
TTITLE21=My Cathedral
TTITLE22=Take My Hand Precious Lord
TTITLE23=We Thank Thee
TTITLE24=I Catch Myself Crying
TTITLE25=That's When I See The Blues (In Your Pretty Brown Eyes)
TTITLE26=Where Do I Go To Throw A Picture Away
TTITLE27=A Letter To My Heart
EXTD=
EXTT0=
EXTT1=
EXTT2=
EXTT3=
EXTT4=
EXTT5=
EXTT6=
EXTT7=
EXTT8=
EXTT9=
EXTT10=
EXTT11=
EXTT12=
EXTT13=
EXTT14=
EXTT15=
EXTT16=
EXTT17=
EXTT18=
EXTT19=
EXTT20=
EXTT21=
EXTT22=
EXTT23=
EXTT24=
EXTT25=
EXTT26=
EXTT27=
PLAYORDER=
